# xmcd
# 
# Track frame offsets:
#     150
#     16048
#     34831
#     56663
#     70593
#     89034
#     102690
#     122159
#     138534
#     155011
#     170777
#     192919
# 
# Disc length: 2852
# 
# Revision: 3
# Processed by: cddbd v1.5.2PL0 Copyright (c) Steve Scherf et al.
# Submitted via: fre:ac v1.0.31
# 
DISCID=ae0b220c
DTITLE=Bruce Springstten Tribute - Dead Man's Town:  A Tribute To Born In The U.S.A.
DYEAR=2014
DGENRE=Country
TTITLE0=Jason Isbell and Amanda Shires - Born in the U.S.A.
TTITLE1=The Apache Relay - Cover Me
TTITLE2=Quaker City Nighthawks - Darlington County
TTITLE3=Blitzen Trapper - Working on the Highway
TTITLE4=Joe Pug - Downbound Train
TTITLE5=Low - I'm on Fire
TTITLE6=Holly Williams - No Surrender
TTITLE7=Ryan Culwell - Bobby Jean
TTITLE8=Trampled By Turtles - I'm Goin' Down
TTITLE9=Justin Townes Earle - Glory Days
TTITLE10=Nicole Atkins - Dancing in the Dark
TTITLE11=North Mississippi Allstars - My Hometown
EXTD=
EXTT0=
EXTT1=
EXTT2=
EXTT3=
EXTT4=
EXTT5=
EXTT6=
EXTT7=
EXTT8=
EXTT9=
EXTT10=
EXTT11=
PLAYORDER=
